<svg xmlns="http://www.w3.org/2000/svg" width="400" height="300" viewBox="0 0 400 300" role="img" aria-label="EpiAwareADTools logo">
  <title>EpiAwareADTools.jl</title>
  <desc>A probability density with a tangent line at a point, evoking the derivative automatic differentiation propagates, in the Julia colour palette.</desc>
  <line x1="40" y1="250" x2="360" y2="250" stroke="#888888" stroke-width="2.5" stroke-linecap="round" stroke-opacity="0.7"/>
  <path d="M 40.00 246.66 L 42.29 246.28 L 44.57 245.86 L 46.86 245.41 L 49.14 244.91 L 51.43 244.36 L 53.71 243.77 L 56.00 243.12 L 58.29 242.42 L 60.57 241.66 L 62.86 240.84 L 65.14 239.95 L 67.43 238.99 L 69.71 237.97 L 72.00 236.86 L 74.29 235.68 L 76.57 234.42 L 78.86 233.07 L 81.14 231.63 L 83.43 230.10 L 85.71 228.47 L 88.00 226.75 L 90.29 224.93 L 92.57 223.01 L 94.86 220.99 L 97.14 218.87 L 99.43 216.64 L 101.71 214.31 L 104.00 211.88 L 106.29 209.34 L 108.57 206.70 L 110.86 203.96 L 113.14 201.12 L 115.43 198.19 L 117.71 195.17 L 120.00 192.06 L 122.29 188.87 L 124.57 185.61 L 126.86 182.27 L 129.14 178.88 L 131.43 175.43 L 133.71 171.93 L 136.00 168.40 L 138.29 164.84 L 140.57 161.26 L 142.86 157.68 L 145.14 154.10 L 147.43 150.53 L 149.71 146.99 L 152.00 143.50 L 154.29 140.05 L 156.57 136.67 L 158.86 133.37 L 161.14 130.15 L 163.43 127.04 L 165.71 124.05 L 168.00 121.18 L 170.29 118.45 L 172.57 115.87 L 174.86 113.45 L 177.14 111.21 L 179.43 109.14 L 181.71 107.27 L 184.00 105.60 L 186.29 104.14 L 188.57 102.88 L 190.86 101.85 L 193.14 101.04 L 195.43 100.47 L 197.71 100.12 L 200.00 100.00 L 202.29 100.12 L 204.57 100.47 L 206.86 101.04 L 209.14 101.85 L 211.43 102.88 L 213.71 104.14 L 216.00 105.60 L 218.29 107.27 L 220.57 109.14 L 222.86 111.21 L 225.14 113.45 L 227.43 115.87 L 229.71 118.45 L 232.00 121.18 L 234.29 124.05 L 236.57 127.04 L 238.86 130.15 L 241.14 133.37 L 243.43 136.67 L 245.71 140.05 L 248.00 143.50 L 250.29 146.99 L 252.57 150.53 L 254.86 154.10 L 257.14 157.68 L 259.43 161.26 L 261.71 164.84 L 264.00 168.40 L 266.29 171.93 L 268.57 175.43 L 270.86 178.88 L 273.14 182.27 L 275.43 185.61 L 277.71 188.87 L 280.00 192.06 L 282.29 195.17 L 284.57 198.19 L 286.86 201.12 L 289.14 203.96 L 291.43 206.70 L 293.71 209.34 L 296.00 211.88 L 298.29 214.31 L 300.57 216.64 L 302.86 218.87 L 305.14 220.99 L 307.43 223.01 L 309.71 224.93 L 312.00 226.75 L 314.29 228.47 L 316.57 230.10 L 318.86 231.63 L 321.14 233.07 L 323.43 234.42 L 325.71 235.68 L 328.00 236.86 L 330.29 237.97 L 332.57 238.99 L 334.86 239.95 L 337.14 240.84 L 339.43 241.66 L 341.71 242.42 L 344.00 243.12 L 346.29 243.77 L 348.57 244.36 L 350.86 244.91 L 353.14 245.41 L 355.43 245.86 L 357.71 246.28 L 360.00 246.66 L 360.00 250.00 L 40.00 250.00 Z" fill="#389826" fill-opacity="0.20"/>
  <path d="M 40.00 246.66 L 42.29 246.28 L 44.57 245.86 L 46.86 245.41 L 49.14 244.91 L 51.43 244.36 L 53.71 243.77 L 56.00 243.12 L 58.29 242.42 L 60.57 241.66 L 62.86 240.84 L 65.14 239.95 L 67.43 238.99 L 69.71 237.97 L 72.00 236.86 L 74.29 235.68 L 76.57 234.42 L 78.86 233.07 L 81.14 231.63 L 83.43 230.10 L 85.71 228.47 L 88.00 226.75 L 90.29 224.93 L 92.57 223.01 L 94.86 220.99 L 97.14 218.87 L 99.43 216.64 L 101.71 214.31 L 104.00 211.88 L 106.29 209.34 L 108.57 206.70 L 110.86 203.96 L 113.14 201.12 L 115.43 198.19 L 117.71 195.17 L 120.00 192.06 L 122.29 188.87 L 124.57 185.61 L 126.86 182.27 L 129.14 178.88 L 131.43 175.43 L 133.71 171.93 L 136.00 168.40 L 138.29 164.84 L 140.57 161.26 L 142.86 157.68 L 145.14 154.10 L 147.43 150.53 L 149.71 146.99 L 152.00 143.50 L 154.29 140.05 L 156.57 136.67 L 158.86 133.37 L 161.14 130.15 L 163.43 127.04 L 165.71 124.05 L 168.00 121.18 L 170.29 118.45 L 172.57 115.87 L 174.86 113.45 L 177.14 111.21 L 179.43 109.14 L 181.71 107.27 L 184.00 105.60 L 186.29 104.14 L 188.57 102.88 L 190.86 101.85 L 193.14 101.04 L 195.43 100.47 L 197.71 100.12 L 200.00 100.00 L 202.29 100.12 L 204.57 100.47 L 206.86 101.04 L 209.14 101.85 L 211.43 102.88 L 213.71 104.14 L 216.00 105.60 L 218.29 107.27 L 220.57 109.14 L 222.86 111.21 L 225.14 113.45 L 227.43 115.87 L 229.71 118.45 L 232.00 121.18 L 234.29 124.05 L 236.57 127.04 L 238.86 130.15 L 241.14 133.37 L 243.43 136.67 L 245.71 140.05 L 248.00 143.50 L 250.29 146.99 L 252.57 150.53 L 254.86 154.10 L 257.14 157.68 L 259.43 161.26 L 261.71 164.84 L 264.00 168.40 L 266.29 171.93 L 268.57 175.43 L 270.86 178.88 L 273.14 182.27 L 275.43 185.61 L 277.71 188.87 L 280.00 192.06 L 282.29 195.17 L 284.57 198.19 L 286.86 201.12 L 289.14 203.96 L 291.43 206.70 L 293.71 209.34 L 296.00 211.88 L 298.29 214.31 L 300.57 216.64 L 302.86 218.87 L 305.14 220.99 L 307.43 223.01 L 309.71 224.93 L 312.00 226.75 L 314.29 228.47 L 316.57 230.10 L 318.86 231.63 L 321.14 233.07 L 323.43 234.42 L 325.71 235.68 L 328.00 236.86 L 330.29 237.97 L 332.57 238.99 L 334.86 239.95 L 337.14 240.84 L 339.43 241.66 L 341.71 242.42 L 344.00 243.12 L 346.29 243.77 L 348.57 244.36 L 350.86 244.91 L 353.14 245.41 L 355.43 245.86 L 357.71 246.28 L 360.00 246.66" fill="none" stroke="#389826" stroke-width="6" stroke-linejoin="round" stroke-linecap="round"/>
  <line x1="105.68" y1="216.00" x2="179.62" y2="100.00" stroke="#4063D8" stroke-width="5" stroke-linecap="round"/>
  <circle cx="142.00" cy="159.02" r="8.5" fill="#ffffff"/>
  <circle cx="142.00" cy="159.02" r="6" fill="#CB3C33"/>
  <path d="M 232.0 137.0 L 256.0 137.0 L 244.0 159.0 Z" fill="none" stroke="#9558B2" stroke-width="5" stroke-linejoin="round"/>
</svg>
